<?xml version="1.0" ?><!DOCTYPE svg  PUBLIC '-//W3C//DTD SVG 1.1//EN'  'http://www.w3.org/Graphics/SVG/1.1/DTD/svg11.dtd'><svg enable-background="new 0 0 64 64" height="64px" id="Google_Drive" version="1.1" viewBox="0 0 64 64" width="64px" xml:space="preserve" xmlns="http://www.w3.org/2000/svg" xmlns:xlink="http://www.w3.org/1999/xlink"><linearGradient gradientTransform="matrix(1 0 0 -1 -822 -1026)" gradientUnits="userSpaceOnUse" id="Circle_Shadow_1_" x1="886.0303" x2="854.0302" y1="-1089.9985" y2="-1057.9985"><stop offset="0.3163" style="stop-color:#FFFFFF;stop-opacity:0"/><stop offset="0.3508" style="stop-color:#E9E9E9;stop-opacity:0.0504"/><stop offset="0.4543" style="stop-color:#ACACAC;stop-opacity:0.2018"/><stop offset="0.5572" style="stop-color:#787878;stop-opacity:0.3523"/><stop offset="0.6569" style="stop-color:#4D4D4D;stop-opacity:0.4981"/><stop offset="0.7528" style="stop-color:#2B2B2B;stop-opacity:0.6385"/><stop offset="0.8441" style="stop-color:#131313;stop-opacity:0.7719"/><stop offset="0.9286" style="stop-color:#050505;stop-opacity:0.8956"/><stop offset="1" style="stop-color:#000000"/></linearGradient><polygon enable-background="new    " fill="url(#Circle_Shadow_1_)" id="Circle_Shadow" opacity="0.2" points="64.029,64   64.029,30.059 49,15.029 15.059,48.971 30.088,64 "/><circle cx="32" cy="32" fill="#E13719" id="Circle" r="24"/><g id="Shadow"><g><defs><circle cx="32.029" cy="32" id="SVGID_1_" r="24"/></defs><clipPath id="SVGID_2_"><use overflow="visible" xlink:href="#SVGID_1_"/></clipPath><linearGradient gradientTransform="matrix(1 0 0 -1 -274 -299)" gradientUnits="userSpaceOnUse" id="SVGID_3_" x1="344.1631" x2="292.7308" y1="-372.2427" y2="-320.8104"><stop offset="0.5255" style="stop-color:#000000;stop-opacity:0"/><stop offset="1" style="stop-color:#000000"/></linearGradient><path clip-path="url(#SVGID_2_)" d="M78.923,62v-0.105h-0.106    v-0.106H78.71v-0.106h-0.106v-0.105h-0.105v-0.105h-0.105v-0.105h-0.106v-0.106H78.18v-0.106h-0.105v-0.105h-0.106v-0.105h-0.104    V60.83h-0.107v-0.105H77.65v-0.105h-0.11v-0.105h-0.106v-0.106h-0.105v-0.106h-0.105v-0.105h-0.106v-0.106H77.01v-0.106h-0.105    v-0.104h-0.106v-0.106h-0.106v-0.105h-0.105v-0.105H76.48v-0.106h-0.106v-0.106h-0.106v-0.105h-0.105V59.13H76.05v-0.106h-0.106    v-0.105h-0.105v-0.105H75.73v-0.106h-0.106V58.6h-0.106v-0.105h-0.105v-0.105h-0.105v-0.105H75.2v-0.106h-0.106V58.07h-0.063V58    h-0.043v-0.04h-0.063v-0.065h-0.044v-0.041h-0.063v-0.065h-0.043v-0.04H74.71v-0.066h-0.044v-0.039h-0.063v-0.065h-0.043v-0.04    h-0.063V57.47h-0.043v-0.038h-0.063v-0.066h-0.043v-0.04h-0.063v-0.066h-0.043v-0.04H74.18v-0.066h-0.044v-0.039h-0.063v-0.066    h-0.043v-0.04h-0.063v-0.065h-0.043v-0.039h-0.063V56.83h-0.043v-0.039h-0.063v-0.066h-0.044v-0.039h-0.063v-0.066h-0.043v-0.04    H73.54v-0.065h-0.044v-0.041h-0.063v-0.065h-0.043v-0.04h-0.063v-0.066h-0.044v-0.04h-0.063v-0.065h-0.045v-0.039h-0.063v-0.067    H73.07V56.05h-0.063v-0.067h-0.044v-0.043H72.9v-0.065h-0.045v-0.04h-0.063v-0.066h-0.044v-0.039h-0.063v-0.066h-0.043v-0.04    h-0.063v-0.065h-0.044v-0.041h-0.063V55.45h-0.045v-0.039h-0.063v-0.067H72.32v-0.039h-0.063v-0.066h-0.044v-0.039H72.15v-0.067    h-0.043V55.09H72.05v-0.066h-0.043v-0.039h-0.063v-0.066H71.9v-0.04h-0.063v-0.065h-0.044v-0.041H71.73v-0.065h-0.043v-0.039    h-0.063V54.6H71.58v-0.039h-0.063v-0.066h-0.043v-0.039h-0.063v-0.066h-0.044V54.35h-0.063v-0.066h-0.044v-0.04h-0.063v-0.066    h-0.044v-0.04h-0.063V54.07h-0.043v-0.039h-0.063V53.96h-0.043v-0.04H70.88v-0.066h-0.044v-0.039h-0.063v-0.065H70.73v-0.041    h-0.063v-0.065h-0.043v-0.039h-0.063v-0.066h-0.043v-0.04h-0.063v-0.065H70.41v-0.041h-0.063v-0.065h-0.045v-0.04H70.24v-0.066    h-0.043V53.18h-0.063v-0.066H70.09V53.07h-0.063v-0.067h-0.045v-0.04H69.92v-0.064h-0.044v-0.041h-0.063v-0.065H69.77v-0.04    h-0.063v-0.066h-0.043v-0.039H69.6V52.58h-0.043v-0.04h-0.063v-0.065H69.45v-0.041h-0.06v-0.065h-0.045v-0.039h-0.063v-0.067    h-0.045v-0.039h-0.063v-0.066h-0.044v-0.039H69.07v-0.066h-0.043v-0.04h-0.063v-0.071h-0.043V51.9h-0.063v-0.066h-0.043v-0.04    h-0.063v-0.065h-0.044v-0.041h-0.063v-0.065h-0.043v-0.039h-0.063v-0.067h-0.045v-0.039h-0.063V51.41h-0.043v-0.039h-0.063v-0.066    h-0.043v-0.039h-0.063v-0.066h-0.043v-0.04h-0.063V51.09H68.07v-0.04h-0.063v-0.065h-0.044v-0.041H67.9v-0.065h-0.043v-0.039    h-0.063v-0.067H67.75v-0.039h-0.063v-0.066h-0.045v-0.039H67.58v-0.066h-0.043v-0.039h-0.063v-0.067H67.43v-0.039h-0.063V50.35    h-0.044v-0.041H67.26v-0.065h-0.044v-0.04h-0.063v-0.066h-0.043v-0.039h-0.063v-0.066h-0.044v-0.04h-0.063V49.92h-0.045v-0.039    h-0.063v-0.066h-0.044v-0.039h-0.063v-0.066h-0.002L68.416,49c0,0-0.135,0-0.359,0l0.254-0.105c0,0-0.136,0-0.36,0l0.254-0.106    c0,0-0.136,0-0.36,0l0.254-0.106c0,0-0.134,0-0.357,0l0.252-0.104c0,0-0.135,0-0.36,0l0.254-0.106c0,0-0.135,0-0.36,0l0.254-0.105    c0,0-0.135,0-0.359,0l0.254-0.106c0,0-0.135,0-0.359,0l0.254-0.106c0,0-0.135,0-0.359,0l0.254-0.105c0,0-0.135,0-0.361,0    l0.254-0.105c0,0-0.135,0-0.359,0l0.254-0.106c0,0-0.134,0-0.357,0l0.252-0.104c0,0-0.136,0-0.36,0l0.254-0.106    c0,0-0.136,0-0.359,0l0.255-0.106c0,0-0.137,0-0.361,0l0.254-0.105c0,0-0.135,0-0.359,0l0.254-0.105c0,0-0.135,0-0.359,0    l0.254-0.106c0,0-0.135,0-0.361,0l0.254-0.106c0,0-0.134,0-0.357,0l0.252-0.104c0,0-0.135,0-0.359,0l0.254-0.106    c0,0-0.135,0-0.359,0l0.254-0.105c0,0-0.135,0-0.36,0l0.254-0.106c0,0-0.136,0-0.36,0l0.254-0.106c0,0-0.135,0-0.359,0    l0.254-0.105c0,0-0.135,0-0.36,0l0.255-0.105c0,0-0.135,0-0.358,0l0.252-0.105c0,0-0.136,0-0.36,0l0.254-0.105    c0,0-0.135,0-0.359,0l0.254-0.106c0,0-0.135,0-0.36,0l0.254-0.106c0,0-0.135,0-0.36,0l0.254-0.105c0,0-0.135,0-0.359,0    l0.254-0.106c0,0-0.134,0-0.357,0l0.252-0.104c0,0-0.137,0-0.362,0l0.256-0.107c0,0-0.134,0-0.358,0l0.252-0.105    c0,0-0.135,0-0.359,0l0.254-0.105c0,0-0.135,0-0.359,0l0.254-0.105c0,0-0.135,0-0.361,0l0.255-0.106c0,0-0.136,0-0.359,0    l0.254-0.106c0,0-0.135,0-0.36,0l0.254-0.105c0,0-0.135,0-0.36,0l0.254-0.105c0,0-0.135,0-0.358,0l0.254-0.106    c0,0-0.135,0-0.359,0l0.252-0.104c0,0-0.135,0-0.359,0l0.254-0.106c0,0-0.135,0-0.359,0l0.254-0.106c0,0-0.135,0-0.361,0    l0.254-0.105c0,0-0.135,0-0.358,0l0.254-0.106c0,0-0.134,0-0.358,0l0.252-0.104c0,0-0.136,0-0.361,0l0.256-0.107    c0,0-0.135,0-0.358,0l0.252-0.105c0,0-0.135,0-0.36,0l0.254-0.105c0,0-0.135,0-0.359,0l0.254-0.105c0,0-0.135,0-0.359,0    l0.254-0.106c0,0-0.135,0-0.36,0l0.254-0.106c0,0-0.134,0-0.358,0l0.252-0.104c0,0-0.135,0-0.362,0l0.257-0.106    c0,0-0.134,0-0.357,0l0.252-0.105c0,0-0.136,0-0.36,0l0.254-0.106c0,0-0.136,0-0.36,0l0.254-0.106c0,0-0.135,0-0.359,0    l0.254-0.105c0,0-0.135,0-0.36,0l0.255-0.105c0,0-0.136,0-0.361,0l0.254-0.106c0,0-0.133,0-0.357,0l0.252-0.104    c0,0-0.135,0-0.359,0l0.254-0.106c0,0-0.135,0-0.36,0l0.254-0.106c0,0-0.135,0-0.358,0L61.5,42.09c0,0-0.135,0-0.359,0    l0.254-0.105c0,0-0.137,0-0.361,0l0.254-0.106c0,0-0.135,0-0.359,0l0.254-0.106c0,0-0.135,0-0.358,0l0.252-0.104    c0,0-0.136,0-0.361,0l0.257-0.106c0,0-0.135,0-0.359,0l0.252-0.105c0,0-0.135,0-0.36,0l0.254-0.105c0,0-0.135,0-0.358,0    l0.254-0.106c0,0-0.135,0-0.36,0l0.254-0.106c0,0-0.135,0-0.36,0l0.254-0.105c0,0-0.135,0-0.359,0l0.254-0.106    c0,0-0.134,0-0.357,0l0.252-0.104c0,0-0.137,0-0.362,0l0.256-0.107c0,0-0.134,0-0.358,0l0.252-0.105c0,0-0.135,0-0.359,0    l0.254-0.105c0,0-0.135,0-0.36,0l0.255-0.105c0,0-0.136,0-0.361,0l0.255-0.106c0,0-0.136,0-0.36,0l0.254-0.106    c0,0-0.134,0-0.357,0l0.252-0.104c0,0-0.137,0-0.363,0l0.257-0.106c0,0-0.134,0-0.358,0l0.252-0.105c0,0-0.135,0-0.359,0    l0.254-0.105c0,0-0.135,0-0.359,0l0.254-0.106c0,0-0.136,0-0.36,0l0.254-0.106c0,0-0.136,0-0.358,0l0.254-0.105    c0,0-0.135,0-0.359,0l0.252-0.105c0,0-0.135,0-0.359,0l0.254-0.105c0,0-0.135,0-0.359,0l0.254-0.106c0,0-0.135,0-0.36,0    l0.254-0.106c0,0-0.135,0-0.36,0l0.254-0.105c0,0-0.135,0-0.36,0l0.254-0.105c0,0-0.135,0-0.36,0l0.254-0.106c0,0-0.133,0-0.356,0    l0.252-0.104c0,0-0.136,0-0.36,0l0.254-0.106c0,0-0.135,0-0.359,0l0.254-0.106c0,0-0.135,0-0.359,0l0.254-0.105    c0,0-0.136,0-0.36,0l0.254-0.106c0,0-0.136,0-0.36,0l0.254-0.106c0,0-0.135,0-0.359,0l0.254-0.105c0,0-0.135,0-0.36,0l0.255-0.105    c0,0-0.136,0-0.361,0l0.254-0.106c0,0-0.133,0-0.357,0l0.252-0.104c0,0-0.136,0-0.361,0l0.256-0.107c0,0-0.135,0-0.358,0    l0.252-0.105c0,0-0.135,0-0.36,0l0.254-0.105c0,0-0.135,0-0.359,0l0.254-0.105c0,0-0.135,0-0.359,0l0.254-0.106    c0,0-0.136,0-0.36,0l0.254-0.106c0,0-0.134,0-0.358,0l0.252-0.105c0,0-0.136,0-0.361,0l0.256-0.106c0,0-0.135,0-0.358,0    l0.253-0.104c0,0-0.136,0-0.359,0l0.254-0.106c0,0-0.135,0-0.361,0l0.254-0.106c0,0-0.135,0-0.359,0l0.254-0.105    c0,0-0.135,0-0.36,0l0.254-0.105c0,0-0.134,0-0.356,0l0.252-0.105c0,0-0.135,0-0.36,0l0.254-0.105c0,0-0.136,0-0.36,0l0.254-0.106    c0,0-0.136,0-0.36,0l0.254-0.106c0,0-0.136,0-0.358,0l0.254-0.105c0,0-0.136,0-0.359,0l0.252-0.105c0,0-0.137,0-0.362,0    l0.257-0.107c0,0-0.134,0-0.357,0l0.252-0.104c0,0-0.135,0-0.36,0l0.254-0.106c0,0-0.135,0-0.36,0l0.254-0.105    c0,0-0.135,0-0.359,0l0.254-0.105c0,0-0.135,0-0.359,0l0.254-0.106c0,0-0.135,0-0.36,0l0.254-0.106c0,0-0.135,0-0.36,0    l0.254-0.105c0,0-0.135,0-0.359,0l0.254-0.105c0,0-0.134,0-0.357,0l0.252-0.105c0,0-0.136,0-0.36,0l0.254-0.105    c0,0-0.136,0-0.36,0l0.254-0.106c0,0-0.135,0-0.359,0l0.254-0.106c0,0-0.135,0-0.36,0l0.255-0.105c0,0-0.136,0-0.361,0    l0.254-0.106c0,0-0.135,0-0.359,0l0.254-0.106c0,0-0.135,0-0.359,0l0.254-0.105c0,0-0.135,0-0.357,0l0.252-0.105    c0,0-0.135,0-0.361,0l0.254-0.105c0,0-0.135,0-0.358,0l0.254-0.105c0,0-0.135,0-0.36,0l0.254-0.106c0,0-0.136,0-0.359,0    l0.254-0.106c0,0-0.135,0-0.359,0l0.254-0.105c0,0-0.136,0-0.36,0l0.254-0.106c0,0-0.136,0-0.361,0l0.255-0.106    c0,0-0.134,0-0.357,0l0.252-0.104c0,0-0.135,0-0.36,0l0.254-0.106c0,0-0.135,0-0.36,0l0.254-0.105c0,0-0.135,0-0.36,0l0.254-0.105    c0,0-0.135,0-0.358,0l0.254-0.106c0,0-0.135,0-0.358,0l0.252-0.105c0,0-0.136,0-0.36,0l0.254-0.107c0,0-0.135,0-0.358,0    l0.253-0.106c0,0-0.135,0-0.359,0l0.254-0.106c0,0-0.135,0-0.358,0l0.253-0.106c0,0-0.137,0-0.362,0l0.255-0.107    c0,0-0.135,0-0.359,0l0.254-0.106c0,0-0.135,0-0.36,0l0.254-0.106c0,0-0.134,0-0.358,0l0.252-0.105c0,0-0.135,0-0.36,0    l0.255-0.107c0,0-0.135,0-0.359,0l0.254-0.106c0,0-0.135,0-0.359,0l0.253-0.106c0,0-0.135,0-0.358,0l0.254-0.106    c0,0-0.135,0-0.36,0l0.253-0.106c0,0-0.137,0-0.361,0l0.256-0.107c0,0-0.135,0-0.358,0l0.252-0.105c0,0-0.136,0-0.358,0    l0.254-0.106c0,0-0.136,0-0.361,0l0.254-0.106c0,0-0.135,0-0.361,0l0.256-0.107c0,0-0.135,0-0.359,0l0.252-0.106    c0,0-0.135,0-0.358,0l0.254-0.106c0,0-0.135,0-0.36,0l0.254-0.106c0,0-0.135,0-0.36,0l0.255-0.107c0,0-0.135,0-0.359,0    l0.252-0.106c0,0-0.133,0-0.357,0l0.253-0.106c0,0-0.135,0-0.36,0l0.254-0.106c0,0-0.136,0-0.36,0l0.254-0.106    c0,0-0.136,0-0.358,0l0.254-0.106c0,0-0.135,0-0.358,0l0.252-0.105c0,0-0.136,0-0.362,0l0.256-0.107c0,0-0.135,0-0.359,0    l0.254-0.106c0,0-0.135,0-0.36,0l0.254-0.106c0,0-0.134,0-0.358,0l0.252-0.106c0,0-0.135,0-0.359,0l0.254-0.106    c0,0-0.135,0-0.359,0l0.254-0.106c0,0-0.135,0-0.36,0l0.254-0.106c0,0-0.134,0-0.358,0l0.252-0.105c0,0-0.136,0-0.362,0    l0.257-0.107c0,0-0.135,0-0.359,0l0.254-0.106c0,0-0.135,0-0.358,0l0.252-0.105c0,0-0.136,0-0.359,0l0.255-0.106    c0,0-0.137,0-0.361,0l0.254-0.106c0,0-0.135,0-0.36,0l0.254-0.106c0,0-0.135,0-0.358,0l0.252-0.106c0,0-0.135,0-0.359,0    l0.254-0.106c0,0-0.134,0-0.357,0l0.252-0.106c0,0-0.137,0-0.362,0l0.256-0.107c0,0-0.133,0-0.356,0l0.252-0.105    c0,0-0.135,0-0.36,0l0.254-0.106c0,0-0.136,0-0.36,0l0.254-0.106c0,0-0.135,0-0.36,0l0.254-0.106c0,0-0.134,0-0.358,0l0.254-0.106    c0,0-0.136,0-0.359,0l0.253-0.106c0,0-0.136,0-0.361,0l0.255-0.107c0,0-0.135,0-0.359,0l0.252-0.106c0,0-0.135,0-0.358,0    l0.254-0.106c0,0-0.135,0-0.358,0l0.252-0.106c0,0-0.135,0-0.36,0l0.255-0.107c0,0-0.135,0-0.359,0l0.254-0.106    c0,0-0.135,0-0.36,0l0.254-0.106c0,0-0.133,0-0.356,0l0.252-0.104c0,0-0.137,0-0.362,0l0.255-0.107c0,0-0.135,0-0.359,0    l0.252-0.106c0,0-0.135,0-0.359,0l0.255-0.106c0,0-0.136,0-0.359,0l0.253-0.106c0,0-0.135,0-0.359,0l0.254-0.106    c0,0-0.137,0-0.361,0l0.255-0.107c0,0-0.134,0-0.358,0l0.252-0.105c0,0-0.135,0-0.358,0l0.254-0.106c0,0-0.135,0-0.36,0    l0.254-0.106c0,0-0.135,0-0.36,0l0.254-0.106c0,0-0.135,0-0.36,0l0.254-0.106c0,0-0.135,0-0.359,0l0.254-0.106    c0,0-0.135,0-0.359,0l0.254-0.106c0,0-0.136,0-0.359,0l0.254-0.106c0,0-0.137,0-0.361,0l0.254-0.106c0,0-0.134,0-0.357,0    l0.253-0.106c0,0-0.136,0-0.36,0l0.254-0.106c0,0-0.135,0-0.359,0l0.254-0.106c0,0-0.135,0-0.361,0l0.254-0.106    c0,0-0.135,0-0.359,0l0.254-0.106c0,0-0.135,0-0.358,0l0.253-0.106c0,0-0.135,0-0.359,0l0.254-0.106c0,0-0.137,0-0.361,0    l0.255-0.107c0,0-0.134,0-0.358,0l0.252-0.106c0,0-0.135,0-0.359,0l0.254-0.106c0,0-0.135,0-0.36,0l0.255-0.106    c0,0-0.136,0-0.361,0l0.255-0.106c0,0-0.136,0-0.36,0l0.254-0.106c0,0-0.135,0-0.359,0l0.254-0.106c0,0-0.135,0-0.359,0    l0.253-0.106c0,0-0.135,0-0.36,0l0.254-0.106c0,0-0.135,0-0.359,0l0.254-0.106c0,0-0.135,0-0.359,0l0.254-0.106    c0,0-0.137,0-0.361,0l0.255-0.107c0,0-0.136,0-0.358,0l0.252-0.106c0,0-0.136,0-0.36,0l0.255-0.107c0,0-0.135,0-0.357,0    l0.252-0.105c0,0-0.136,0-0.361,0l0.256-0.107c0,0-0.135,0-0.36,0l0.253-0.106c0,0-0.135,0-0.359,0l0.254-0.106    c0,0-0.135,0-0.358,0l0.253-0.106c0,0-0.136,0-0.361,0l0.254-0.107c0,0-0.133,0-0.357,0l0.253-0.106c0,0-0.136,0-0.36,0    l0.254-0.106c0,0-0.135,0-0.358,0l0.253-0.106c0,0-0.135,0-0.359,0l0.254-0.106c0,0-0.136,0-0.36,0L40.413,21c0,0-0.136,0-0.358,0    l0.252-0.106c0,0-0.135,0-0.359,0l0.254-0.106c0,0-0.135,0-0.36,0l0.255-0.106c0,0-0.136,0-0.361,0l0.254-0.106    c0,0-0.135,0-0.359,0l0.254-0.106c0,0-0.134,0-0.359,0l0.254-0.106c0,0-0.135,0-0.36,0l0.254-0.106c0,0-0.135,0-0.36,0    l0.254-0.106c0,0-0.133,0-0.357,0l0.253-0.106c0,0-0.135,0-0.36,0l0.254-0.106c0,0-0.137,0-0.361,0l0.255-0.107    c0,0-0.136,0-0.36,0l0.254-0.106c0,0-0.135,0-0.359,0l0.254-0.106c0,0-0.135,0-0.359,0l0.254-0.106c0,0-0.136,0-0.361,0    l0.255-0.106c0,0-0.136,0-0.36,0l0.254-0.106c0,0-0.134,0-0.357,0l0.252-0.106c0,0-0.135,0-0.359,0l0.254-0.106    c0,0-0.136,0-0.361,0l0.254-0.106c0,0-0.135,0-0.359,0l0.254-0.106c0,0-0.135,0-0.359,0l0.254-0.106c0,0-0.135,0-0.359,0    l0.253-0.106c0,0-0.134,0-0.358,0l0.254-0.106c0,0-0.137,0-0.363,0l0.256-0.107c0,0-0.135,0-0.357,0l0.252-0.105    c0,0-0.136,0-0.361,0l0.256-0.107c0,0-0.135,0-0.359,0l0.253-0.106c0,0-0.136,0-0.36,0l0.254-0.107c0,0-0.135,0-0.359,0    l0.253-0.106c0,0-0.135,0-0.358,0l0.254-0.106c0,0-0.135,0-0.359,0l0.253-0.106c0,0-0.136,0-0.36,0l0.254-0.107    c0,0-0.133,0-0.357,0l0.252-0.105c0,0-0.137,0-0.361,0l0.256-0.107c0,0-0.136,0-0.359,0l0.253-0.106c0,0-0.136,0-0.36,0    l0.254-0.106c0,0-0.135,0-0.359,0L36.387,17c0,0-7.062,0-9.386,0c-4.165,0-8,3.345-8,7c0,1.88,0.724,3.529,1.981,4.704    c0.036,0.035,0.069,0.071,0.105,0.104c0.036,0.035,0.069,0.072,0.106,0.106c0.036,0.035,0.07,0.072,0.106,0.106    c0.037,0.036,0.071,0.074,0.109,0.108c0.035,0.035,0.068,0.071,0.104,0.104c0.036,0.036,0.07,0.073,0.108,0.107    c0.035,0.035,0.068,0.071,0.104,0.104c0.036,0.035,0.069,0.072,0.106,0.106c0.038,0.037,0.074,0.076,0.112,0.112    c0.033,0.033,0.064,0.067,0.099,0.099c0.038,0.037,0.073,0.075,0.112,0.111c0.035,0.034,0.068,0.07,0.104,0.104    c0.037,0.036,0.071,0.073,0.108,0.108c0.035,0.035,0.068,0.071,0.104,0.104c0.036,0.036,0.071,0.073,0.108,0.108    c0.035,0.035,0.068,0.071,0.104,0.104c0.035,0.035,0.068,0.071,0.104,0.104c0.038,0.037,0.073,0.075,0.111,0.111    c0.035,0.034,0.068,0.07,0.104,0.104c0.036,0.036,0.07,0.072,0.107,0.107c0.036,0.035,0.07,0.072,0.106,0.106    c0.036,0.035,0.07,0.072,0.106,0.106c0.035,0.034,0.067,0.069,0.103,0.103c0.037,0.037,0.072,0.075,0.11,0.11    c0.036,0.036,0.071,0.073,0.108,0.107c0.035,0.034,0.068,0.07,0.104,0.104c0.036,0.036,0.07,0.073,0.107,0.107    c0.036,0.035,0.069,0.071,0.105,0.105c0.036,0.035,0.069,0.072,0.106,0.106c0.036,0.036,0.07,0.072,0.106,0.106    c0.036,0.036,0.07,0.073,0.107,0.107c0.035,0.035,0.069,0.071,0.105,0.105c0.036,0.035,0.07,0.072,0.106,0.106    c0.037,0.036,0.071,0.073,0.109,0.108c0.035,0.035,0.068,0.071,0.104,0.104c0.036,0.035,0.069,0.071,0.105,0.104    c0.037,0.037,0.072,0.073,0.109,0.108c0.035,0.034,0.068,0.07,0.104,0.104c0.037,0.035,0.072,0.074,0.11,0.108    c0.035,0.034,0.068,0.07,0.104,0.104c0.036,0.033,0.069,0.07,0.105,0.104c0.036,0.035,0.069,0.071,0.106,0.106    c0.036,0.033,0.069,0.07,0.106,0.105c0.036,0.034,0.07,0.071,0.107,0.106c0.036,0.034,0.07,0.071,0.107,0.106    c0.036,0.035,0.07,0.071,0.106,0.106c0.036,0.034,0.069,0.071,0.105,0.104c0.036,0.035,0.07,0.072,0.107,0.106    c0.035,0.035,0.069,0.071,0.105,0.104c0.036,0.035,0.07,0.072,0.106,0.106c0.036,0.035,0.069,0.071,0.106,0.104    c0.037,0.037,0.071,0.074,0.109,0.108c0.035,0.035,0.068,0.071,0.104,0.104c0.036,0.035,0.07,0.072,0.107,0.106    c0.036,0.036,0.07,0.073,0.107,0.107c0.035,0.034,0.068,0.069,0.104,0.104c0.037,0.034,0.071,0.071,0.108,0.106    c0.035,0.034,0.067,0.069,0.104,0.104c0.037,0.036,0.073,0.074,0.111,0.11c0.007,0.007,0.014,0.015,0.021,0.021    c-0.447,0-0.93,0-1.283,0c-5.159,0-9,2.594-9,6c0,1.08,0.51,2.086,1.367,2.953c0.034,0.037,0.072,0.071,0.107,0.107    c0.034,0.036,0.071,0.07,0.106,0.105c0.034,0.035,0.071,0.07,0.106,0.105c0.035,0.037,0.073,0.072,0.108,0.107    c0.034,0.037,0.071,0.07,0.106,0.105c0.033,0.035,0.07,0.069,0.105,0.104c0.033,0.035,0.069,0.07,0.104,0.104    c0.035,0.037,0.073,0.073,0.109,0.109c0.034,0.036,0.072,0.071,0.107,0.106c0.033,0.034,0.069,0.067,0.103,0.103    c0.036,0.038,0.074,0.073,0.111,0.112c0.034,0.035,0.071,0.069,0.106,0.104c0.034,0.036,0.071,0.069,0.106,0.104    c0.033,0.035,0.069,0.068,0.103,0.104c0.035,0.036,0.072,0.071,0.108,0.108c0.034,0.035,0.07,0.068,0.105,0.104    c0.034,0.036,0.071,0.07,0.106,0.105c0.036,0.039,0.076,0.076,0.113,0.113c0.031,0.033,0.066,0.064,0.098,0.098    c0.036,0.039,0.075,0.074,0.112,0.113c0.032,0.033,0.068,0.065,0.101,0.101c0.035,0.036,0.074,0.073,0.11,0.11    c0.034,0.035,0.071,0.069,0.105,0.104c0.034,0.036,0.071,0.069,0.106,0.104c0.033,0.035,0.069,0.069,0.104,0.104    c0.036,0.037,0.075,0.074,0.112,0.11c0.033,0.035,0.069,0.068,0.103,0.104c0.034,0.036,0.071,0.071,0.106,0.105    c0.034,0.037,0.071,0.072,0.107,0.106c0.034,0.036,0.071,0.071,0.107,0.107c0.033,0.034,0.07,0.069,0.104,0.104    c0.035,0.036,0.074,0.072,0.11,0.109c0.033,0.035,0.069,0.068,0.104,0.104c0.034,0.037,0.072,0.071,0.107,0.106    c0.034,0.037,0.072,0.071,0.107,0.106c0.033,0.035,0.069,0.068,0.103,0.104c0.035,0.038,0.074,0.073,0.11,0.109    c0.033,0.035,0.069,0.068,0.103,0.104c0.036,0.037,0.075,0.074,0.112,0.111c0.032,0.034,0.067,0.065,0.101,0.1    c0.035,0.038,0.074,0.074,0.11,0.11c0.033,0.035,0.069,0.068,0.104,0.104c0.035,0.037,0.074,0.073,0.11,0.109    c0.033,0.035,0.069,0.068,0.103,0.104c0.034,0.035,0.071,0.07,0.106,0.105c0.034,0.036,0.072,0.07,0.107,0.107    c0.034,0.037,0.072,0.071,0.108,0.107c0.034,0.036,0.071,0.07,0.106,0.105c0.033,0.035,0.07,0.068,0.104,0.104    c0.034,0.037,0.072,0.072,0.108,0.108c0.033,0.036,0.07,0.069,0.105,0.104c0.034,0.036,0.071,0.071,0.106,0.106    c0.034,0.036,0.07,0.069,0.105,0.106c0.034,0.035,0.072,0.07,0.107,0.106c0.034,0.035,0.071,0.069,0.106,0.104    c0.035,0.037,0.072,0.071,0.108,0.107c0.034,0.036,0.07,0.068,0.105,0.104c0.034,0.037,0.071,0.071,0.106,0.107    s0.072,0.071,0.108,0.107c0.033,0.035,0.07,0.068,0.104,0.104c0.034,0.036,0.071,0.07,0.105,0.105    c0.034,0.037,0.073,0.072,0.109,0.108c0.034,0.036,0.071,0.07,0.106,0.105c0.033,0.036,0.07,0.069,0.105,0.104    c0.034,0.037,0.072,0.072,0.108,0.108c0.033,0.034,0.069,0.067,0.103,0.104c0.035,0.037,0.074,0.072,0.11,0.108    c0.033,0.035,0.07,0.069,0.104,0.104c0.035,0.037,0.073,0.071,0.108,0.107c0.033,0.035,0.069,0.068,0.103,0.104    c0.035,0.037,0.074,0.074,0.111,0.11c0.033,0.035,0.07,0.069,0.104,0.104c0.034,0.035,0.071,0.07,0.106,0.105    c0.034,0.036,0.071,0.071,0.107,0.107c0.034,0.035,0.071,0.07,0.106,0.105c0.034,0.035,0.072,0.07,0.107,0.106    c0.034,0.036,0.072,0.069,0.107,0.106c0.034,0.035,0.071,0.069,0.106,0.105c0.033,0.035,0.069,0.068,0.104,0.104    c0.035,0.037,0.074,0.073,0.11,0.11c0.033,0.034,0.069,0.067,0.103,0.103c0.035,0.037,0.072,0.072,0.108,0.108    c0.034,0.036,0.072,0.07,0.107,0.106c0.034,0.035,0.072,0.07,0.107,0.105c0.033,0.035,0.069,0.069,0.104,0.104    c0.036,0.038,0.075,0.073,0.111,0.11c0.033,0.035,0.069,0.068,0.104,0.104c0.033,0.034,0.068,0.067,0.102,0.103    c0.035,0.037,0.073,0.072,0.11,0.109c0.035,0.038,0.074,0.073,0.11,0.109c0.033,0.035,0.069,0.068,0.103,0.103    c0.034,0.037,0.072,0.072,0.107,0.106c0.034,0.037,0.07,0.07,0.105,0.105c0.034,0.036,0.071,0.071,0.106,0.106    c0.035,0.036,0.073,0.071,0.108,0.108c0.033,0.034,0.069,0.067,0.103,0.103c0.036,0.038,0.075,0.073,0.112,0.112    c0.032,0.033,0.067,0.065,0.101,0.1c0.036,0.038,0.074,0.074,0.111,0.111c0.033,0.035,0.069,0.067,0.104,0.104    c0.034,0.036,0.071,0.071,0.107,0.105c0.035,0.037,0.073,0.074,0.109,0.109c0.033,0.035,0.07,0.069,0.104,0.104    c0.034,0.037,0.072,0.072,0.107,0.109c0.033,0.033,0.069,0.066,0.103,0.102c0.036,0.039,0.076,0.076,0.114,0.113    c0.031,0.033,0.066,0.064,0.098,0.098c0.037,0.039,0.077,0.076,0.115,0.115c0.031,0.033,0.066,0.064,0.099,0.099    c0.036,0.038,0.076,0.075,0.113,0.112c0.033,0.035,0.069,0.068,0.104,0.104c0.034,0.037,0.072,0.071,0.107,0.107    c0.034,0.035,0.07,0.07,0.105,0.104c0.035,0.036,0.073,0.071,0.108,0.107c0.034,0.036,0.071,0.069,0.106,0.106    c0.033,0.033,0.068,0.066,0.102,0.103c0.035,0.036,0.073,0.071,0.109,0.108c0.034,0.035,0.071,0.07,0.106,0.105    c0.035,0.038,0.074,0.072,0.11,0.109c0.032,0.035,0.068,0.067,0.102,0.103c0.035,0.037,0.073,0.072,0.109,0.108    c0.033,0.035,0.07,0.068,0.104,0.104c0.034,0.036,0.07,0.07,0.105,0.105c0.034,0.037,0.072,0.072,0.108,0.107    c0.035,0.037,0.073,0.072,0.109,0.109c0.032,0.033,0.067,0.066,0.1,0.1c0.036,0.038,0.074,0.074,0.111,0.111    c0.033,0.035,0.07,0.068,0.104,0.104c0.035,0.037,0.073,0.072,0.109,0.109c0.033,0.035,0.07,0.068,0.104,0.104    c0.034,0.037,0.072,0.071,0.107,0.107c0.034,0.036,0.07,0.069,0.105,0.104c0.034,0.037,0.07,0.07,0.105,0.106    c0.036,0.038,0.076,0.075,0.113,0.113c0.031,0.032,0.065,0.063,0.098,0.097c0.037,0.039,0.076,0.075,0.113,0.113    c0.031,0.033,0.068,0.066,0.102,0.102c0.035,0.037,0.073,0.072,0.109,0.109c0.033,0.036,0.07,0.068,0.105,0.104    c0.033,0.037,0.07,0.071,0.105,0.106c0.031,0.035,0.068,0.067,0.104,0.104s0.074,0.074,0.112,0.112    c0.034,0.036,0.071,0.07,0.106,0.104c0.031,0.035,0.067,0.068,0.102,0.103c0.034,0.036,0.07,0.071,0.107,0.107    c0.033,0.036,0.07,0.071,0.105,0.106c0.035,0.037,0.074,0.072,0.11,0.109c0.03,0.034,0.065,0.064,0.1,0.1    c0.034,0.036,0.072,0.072,0.108,0.108c0.035,0.038,0.074,0.075,0.111,0.112c0.031,0.033,0.065,0.063,0.099,0.097    c0.036,0.039,0.075,0.077,0.114,0.114c0.031,0.035,0.067,0.068,0.103,0.103c0.034,0.036,0.071,0.071,0.106,0.106    c0.033,0.035,0.07,0.07,0.105,0.105c0.034,0.036,0.071,0.071,0.105,0.106c0.035,0.036,0.074,0.073,0.109,0.108    c0.033,0.035,0.068,0.068,0.104,0.104c0.033,0.035,0.072,0.07,0.107,0.107c0.034,0.035,0.071,0.07,0.106,0.105    c0.032,0.036,0.069,0.068,0.104,0.104c0.033,0.037,0.07,0.072,0.106,0.107c0.034,0.036,0.071,0.071,0.106,0.105    c0.033,0.037,0.07,0.072,0.105,0.106c0.035,0.038,0.074,0.073,0.109,0.11c0.033,0.035,0.07,0.068,0.104,0.103    c0.033,0.036,0.07,0.069,0.104,0.104c0.033,0.037,0.07,0.07,0.106,0.107c0.034,0.035,0.071,0.07,0.106,0.105    c0.033,0.035,0.07,0.07,0.105,0.105c0.034,0.036,0.071,0.071,0.107,0.107c0.033,0.036,0.07,0.07,0.105,0.105    c0.034,0.037,0.072,0.072,0.108,0.108c0.031,0.033,0.065,0.065,0.099,0.099c0.036,0.039,0.077,0.076,0.114,0.115    c0.032,0.033,0.067,0.065,0.101,0.1c0.035,0.037,0.076,0.074,0.112,0.113c0.032,0.033,0.068,0.066,0.103,0.102    c0.035,0.037,0.072,0.07,0.107,0.107c0.033,0.035,0.07,0.07,0.105,0.105c0.033,0.035,0.07,0.068,0.105,0.104    c0.033,0.037,0.071,0.072,0.107,0.109c0.033,0.035,0.07,0.07,0.105,0.105c0.033,0.035,0.07,0.069,0.105,0.104    c0.033,0.036,0.07,0.069,0.105,0.104c0.035,0.037,0.072,0.074,0.108,0.109c0.033,0.036,0.071,0.07,0.104,0.105    c0.035,0.035,0.072,0.07,0.106,0.104c0.033,0.036,0.071,0.071,0.106,0.106c0.033,0.035,0.07,0.068,0.104,0.104    c0.034,0.037,0.071,0.071,0.107,0.107c0.033,0.035,0.07,0.07,0.105,0.105c0.034,0.036,0.071,0.071,0.106,0.106    c0.034,0.037,0.071,0.071,0.106,0.106c0.033,0.035,0.069,0.069,0.104,0.104c0.036,0.037,0.075,0.074,0.112,0.11    c0.031,0.033,0.064,0.065,0.099,0.1c0.036,0.038,0.075,0.075,0.112,0.113c0.033,0.033,0.068,0.066,0.102,0.101    c0.035,0.037,0.074,0.073,0.111,0.111c0.031,0.034,0.068,0.067,0.104,0.103c0.033,0.036,0.07,0.071,0.105,0.106    c0.035,0.036,0.072,0.071,0.109,0.108c0.032,0.035,0.069,0.068,0.104,0.104c0.033,0.036,0.07,0.07,0.105,0.105    c0.033,0.037,0.071,0.071,0.107,0.107c0.033,0.036,0.07,0.07,0.105,0.105c0.035,0.037,0.072,0.072,0.108,0.108    c0.032,0.035,0.068,0.067,0.103,0.103c0.035,0.037,0.072,0.072,0.108,0.108c0.034,0.036,0.07,0.069,0.104,0.104    c0.035,0.037,0.072,0.07,0.107,0.107c0.033,0.034,0.07,0.068,0.104,0.104c0.034,0.037,0.071,0.072,0.108,0.107    c0.033,0.036,0.07,0.071,0.105,0.107c0.033,0.034,0.068,0.066,0.104,0.104s0.075,0.074,0.112,0.111    c0.032,0.034,0.068,0.066,0.103,0.102c0.033,0.037,0.072,0.071,0.107,0.107c0.033,0.036,0.07,0.07,0.105,0.105    c0.033,0.035,0.07,0.07,0.105,0.105c0.034,0.037,0.072,0.072,0.107,0.108c0.033,0.034,0.07,0.069,0.105,0.104    c0.033,0.037,0.072,0.072,0.108,0.109c0.032,0.034,0.069,0.067,0.104,0.103c0.033,0.036,0.07,0.071,0.105,0.106    c0.034,0.036,0.07,0.071,0.105,0.106s0.071,0.07,0.106,0.105c0.034,0.036,0.071,0.07,0.106,0.105    c0.031,0.035,0.066,0.068,0.102,0.104c0.038,0.04,0.079,0.078,0.118,0.118c0.03,0.032,0.063,0.063,0.097,0.096    c0.034,0.037,0.072,0.072,0.108,0.108c0.034,0.035,0.071,0.07,0.106,0.105c0.033,0.036,0.07,0.071,0.105,0.106    c0.033,0.036,0.07,0.071,0.105,0.106c0.034,0.036,0.072,0.071,0.107,0.107c0.034,0.035,0.07,0.068,0.104,0.104    c0.035,0.037,0.072,0.072,0.108,0.108c0.034,0.036,0.071,0.07,0.106,0.104c0.033,0.037,0.07,0.07,0.104,0.105    c0.034,0.036,0.071,0.071,0.106,0.105c0.033,0.037,0.07,0.072,0.105,0.106c0.034,0.036,0.071,0.071,0.106,0.106    c0.034,0.037,0.071,0.072,0.106,0.107c0.034,0.036,0.071,0.07,0.106,0.105c0.034,0.035,0.071,0.07,0.106,0.105    c0.032,0.035,0.069,0.069,0.104,0.104c0.034,0.036,0.071,0.071,0.106,0.106c0.033,0.035,0.07,0.07,0.105,0.105    c0.034,0.036,0.07,0.07,0.105,0.105c0.035,0.037,0.074,0.074,0.109,0.11c0.032,0.033,0.067,0.065,0.1,0.099    c0.037,0.039,0.076,0.076,0.115,0.115c0.03,0.032,0.065,0.064,0.098,0.098c0.037,0.039,0.076,0.076,0.113,0.113    c0.031,0.034,0.066,0.065,0.101,0.101c0.034,0.036,0.071,0.071,0.108,0.108c0.033,0.036,0.071,0.071,0.107,0.107    c0.034,0.036,0.07,0.07,0.105,0.107c0.035,0.035,0.071,0.069,0.106,0.104c0.034,0.036,0.071,0.07,0.106,0.104    c0.033,0.037,0.07,0.07,0.104,0.105c0.033,0.036,0.07,0.07,0.104,0.105c0.035,0.037,0.072,0.07,0.107,0.106    c0.034,0.036,0.071,0.071,0.106,0.106c0.034,0.037,0.073,0.072,0.108,0.109c0.033,0.034,0.07,0.068,0.104,0.104    c0.032,0.035,0.069,0.068,0.104,0.104c0.034,0.036,0.071,0.071,0.106,0.106c0.034,0.036,0.071,0.071,0.106,0.106    c0.033,0.035,0.07,0.07,0.105,0.105c0.034,0.037,0.072,0.072,0.107,0.107c0.033,0.035,0.07,0.069,0.104,0.104    c0.035,0.038,0.074,0.073,0.11,0.11c0.031,0.033,0.066,0.066,0.101,0.1c0.035,0.039,0.075,0.075,0.112,0.113    c0.033,0.035,0.068,0.068,0.104,0.104c0.034,0.035,0.071,0.07,0.106,0.105c0.034,0.035,0.071,0.07,0.106,0.105    c0.033,0.037,0.071,0.072,0.106,0.108c0.034,0.036,0.072,0.071,0.108,0.106c0.031,0.035,0.068,0.068,0.104,0.104    c0.033,0.036,0.07,0.07,0.105,0.105c0.033,0.037,0.072,0.071,0.106,0.107c0.033,0.034,0.068,0.067,0.103,0.102    c0.035,0.037,0.072,0.074,0.109,0.11c0.034,0.037,0.072,0.072,0.108,0.108c0.032,0.035,0.067,0.068,0.103,0.104    c0.036,0.037,0.075,0.074,0.112,0.111c0.033,0.035,0.069,0.068,0.104,0.104c0.033,0.035,0.069,0.068,0.104,0.104    c0.034,0.037,0.071,0.07,0.107,0.107c0.033,0.035,0.07,0.07,0.105,0.105c0.034,0.036,0.071,0.071,0.105,0.105    c0.035,0.037,0.074,0.074,0.109,0.109c0.032,0.035,0.068,0.068,0.104,0.104c0.035,0.037,0.072,0.072,0.109,0.109    c0.032,0.034,0.068,0.067,0.104,0.104c0.033,0.035,0.07,0.07,0.105,0.105C52.066,77.734,55.493,79,59.061,79    c5.881,0,9.969-3,9.969-7c0-1.373-0.666-2.455-1.641-3.417c-0.037-0.036-0.072-0.071-0.107-0.106    c-0.036-0.037-0.072-0.072-0.109-0.108c-0.031-0.033-0.064-0.065-0.099-0.099c-0.037-0.039-0.075-0.076-0.114-0.115    c-0.033-0.033-0.066-0.066-0.102-0.102s-0.071-0.07-0.106-0.105c-0.035-0.036-0.071-0.071-0.106-0.106    c-0.035-0.036-0.07-0.071-0.105-0.106c-0.035-0.034-0.07-0.07-0.105-0.105c-0.037-0.038-0.076-0.076-0.115-0.113    c-0.031-0.033-0.064-0.064-0.098-0.098c-0.033-0.035-0.068-0.068-0.104-0.104c-0.036-0.037-0.072-0.073-0.109-0.109    c-0.033-0.034-0.066-0.068-0.102-0.104c-0.039-0.039-0.079-0.078-0.118-0.117c-0.03-0.03-0.062-0.062-0.093-0.092    c-0.038-0.041-0.078-0.08-0.119-0.119c-0.032-0.033-0.064-0.065-0.098-0.099c-0.039-0.039-0.078-0.077-0.117-0.116    c-0.03-0.031-0.063-0.063-0.096-0.096c-0.035-0.036-0.072-0.072-0.108-0.109c-0.035-0.035-0.071-0.07-0.106-0.105    c-0.035-0.036-0.07-0.072-0.107-0.107c-0.035-0.035-0.071-0.072-0.108-0.107c-0.034-0.035-0.069-0.071-0.106-0.106    c-0.033-0.034-0.067-0.069-0.104-0.104c-0.035-0.035-0.07-0.07-0.105-0.105c-0.035-0.036-0.07-0.071-0.105-0.106    s-0.071-0.07-0.105-0.105c-0.035-0.036-0.072-0.07-0.106-0.105c-0.035-0.037-0.071-0.071-0.106-0.106    c-0.037-0.037-0.074-0.074-0.111-0.11c-0.03-0.031-0.063-0.063-0.096-0.097c-0.039-0.041-0.08-0.081-0.121-0.121    c-0.031-0.032-0.064-0.063-0.098-0.097c-0.034-0.034-0.068-0.068-0.104-0.104c-0.037-0.037-0.075-0.076-0.114-0.115    c-0.033-0.033-0.067-0.066-0.103-0.102s-0.07-0.07-0.106-0.107c-0.032-0.031-0.063-0.064-0.099-0.098    c-0.039-0.041-0.082-0.082-0.123-0.123c-0.031-0.033-0.064-0.064-0.099-0.098c-0.032-0.034-0.065-0.066-0.101-0.102    c-0.037-0.037-0.074-0.074-0.111-0.111c-0.035-0.035-0.068-0.069-0.104-0.104c-0.039-0.039-0.08-0.08-0.119-0.119    c-0.028-0.027-0.057-0.058-0.086-0.086c-0.041-0.041-0.082-0.082-0.123-0.123c-0.032-0.033-0.065-0.065-0.1-0.099    c-0.035-0.036-0.07-0.071-0.105-0.106s-0.071-0.07-0.106-0.105c-0.001-0.001-0.002-0.002-0.003-0.003    c0.021-0.633,0.225-1.497,1.07-2.159c0.541-0.423,1.068-0.927,1.531-1.484v0.021h0.063v0.065h0.044v0.041h0.063v0.065h0.043v0.04    h0.063v0.064h0.043v0.041h0.063v0.065h0.043v0.04h0.063v0.066h0.043v0.039h0.063v0.066h0.043v0.04h0.063v0.066h0.043v0.04h0.063    v0.066h0.045v0.039h0.063v0.066h0.043v0.039h0.063v0.066h0.043v0.041h0.063v0.065h0.043v0.039h0.063v0.065h0.044v0.041h0.063    v0.065h0.045v0.04h0.063v0.066h0.045v0.039h0.063v0.066h0.043v0.04h0.063v0.065h0.045v0.041h0.063v0.066h0.044v0.038h0.063v0.066    h0.043v0.04h0.063v0.066h0.044v0.039h0.063v0.066h0.045v0.04h0.063v0.065h0.045v0.041h0.063v0.065h0.044v0.04h0.063v0.066h0.043    v0.039h0.063v0.066h0.044v0.039h0.063v0.066h0.045v0.039h0.063v0.067h0.043v0.039H67.4v0.065h0.045V62.4h0.063v0.065h0.043v0.04    h0.063v0.066h0.044v0.04h0.063v0.065h0.043v0.041h0.063v0.065h0.043v0.039h0.063v0.065h0.043v0.041h0.063v0.066h0.043v0.039h0.063    v0.066h0.043v0.039h0.063v0.066h0.043v0.04h0.063v0.065H68.4v0.041h0.063v0.065h0.044v0.04h0.063v0.066h0.043v0.039h0.063v0.066    h0.043v0.039h0.063v0.066h0.043v0.039h0.063v0.066h0.045v0.04h0.063v0.066h0.044V64h0.063v0.066h0.106v0.105h0.104v0.105h0.106    v0.106h0.106v0.105h0.105v0.106h0.106v0.105h0.106v0.105h0.105v0.106h0.105v0.106h0.106v0.104h0.106v0.106h0.105v0.105h0.105    v0.105h0.106v0.106h0.106v0.106h0.105v0.105h0.106v0.106h0.106v0.106h0.104v0.104h0.106v0.106h0.106v0.105h0.106v0.105h0.104    v0.106h0.106v0.106h0.105v0.105h0.107v0.105h0.105v0.107h0.105v0.104h0.105v0.106h0.106v0.105h0.106v0.105h0.105v0.106H72.6v0.106    h0.106v0.104h0.106v0.106h0.105v0.105h0.106V68h2v-4h4v-2H78.923z" enable-background="new    " fill="url(#SVGID_3_)" opacity="0.4"/></g></g><g id="G_x2B_"><polygon fill="#FFFFFF" id="_x2B__1_" points="47,30 43,30 43,26 41,26 41,30 37,30 37,32 41,32 41,36 43,36 43,32 47,32  "/><path d="M32.001,34c0,0-2-1.15-2-2c0,0-0.499-1.828,1-3C32.537,27.8,34,25.965,34,24   c0-2.336-1.045-5-2.999-6H34l2.387-1c0,0-7.062,0-9.386,0c-4.165,0-8,3.345-8,7c0,3.735,2.849,6.561,7.086,6.561   c0.295,0,0.581-0.006,0.86-0.025c-0.273,0.525-0.472,1.119-0.472,1.734c0,1.037,0.818,2.042,1.524,2.73c-0.533,0-1.438,0-2,0   c-5.159,0-9,2.593-9,6c0,3.355,4.872,6,10.03,6c5.882,0,9.97-3,9.97-7C37,37.311,34.455,35.736,32.001,34z M28.001,30   c-2.396,0-5.587-2.857-6-6c-0.413-3.144,1.606-6.071,4-6s4.603,2.908,5.017,6.052C31.43,27.195,30.001,30,28.001,30z M27.001,45   c-3.566,0-7-1.289-7-4c0-2.658,3.434-5.038,7-5c0.832,0.009,2,0,2,0c1,0,2.88,0.881,3.999,2c1,1,1,2.674,1,3   C34,44,32.015,45,27.001,45z" fill="#FFFFFF" id="g_1_"/></g></svg>